<svg width="21" height="20" viewBox="0 0 21 20" fill="none" xmlns="http://www.w3.org/2000/svg">
<path fill-rule="evenodd" clip-rule="evenodd" d="M2.56344 0H5.94344C7.35344 0 8.48344 1.15 8.48344 2.561V5.97C8.48344 7.39 7.35344 8.53 5.94344 8.53H2.56344C1.16344 8.53 0.0234375 7.39 0.0234375 5.97V2.561C0.0234375 1.15 1.16344 0 2.56344 0ZM2.56344 11.4697H5.94344C7.35344 11.4697 8.48344 12.6107 8.48344 14.0307V17.4397C8.48344 18.8497 7.35344 19.9997 5.94344 19.9997H2.56344C1.16344 19.9997 0.0234375 18.8497 0.0234375 17.4397V14.0307C0.0234375 12.6107 1.16344 11.4697 2.56344 11.4697ZM17.4835 0H14.1035C12.6935 0 11.5635 1.15 11.5635 2.561V5.97C11.5635 7.39 12.6935 8.53 14.1035 8.53H17.4835C18.8835 8.53 20.0235 7.39 20.0235 5.97V2.561C20.0235 1.15 18.8835 0 17.4835 0ZM14.1035 11.4697H17.4835C18.8835 11.4697 20.0235 12.6107 20.0235 14.0307V17.4397C20.0235 18.8497 18.8835 19.9997 17.4835 19.9997H14.1035C12.6935 19.9997 11.5635 18.8497 11.5635 17.4397V14.0307C11.5635 12.6107 12.6935 11.4697 14.1035 11.4697Z" fill="#666666" fill-opacity="0.85"/>
</svg>
