<svg width="19" height="20" viewBox="0 0 19 20" fill="none" xmlns="http://www.w3.org/2000/svg">
<path fill-rule="evenodd" clip-rule="evenodd" d="M4.83344 0H13.2144C16.3034 0 18.0234 1.78 18.0234 4.83V15.16C18.0234 18.26 16.3034 20 13.2144 20H4.83344C1.79344 20 0.0234375 18.26 0.0234375 15.16V4.83C0.0234375 1.78 1.79344 0 4.83344 0ZM5.10344 4.66V4.65H8.09244C8.52344 4.65 8.87344 5 8.87344 5.429C8.87344 5.87 8.52344 6.22 8.09244 6.22H5.10344C4.67244 6.22 4.32344 5.87 4.32344 5.44C4.32344 5.01 4.67244 4.66 5.10344 4.66ZM5.10344 10.74H12.9434C13.3734 10.74 13.7234 10.39 13.7234 9.96C13.7234 9.53 13.3734 9.179 12.9434 9.179H5.10344C4.67244 9.179 4.32344 9.53 4.32344 9.96C4.32344 10.39 4.67244 10.74 5.10344 10.74ZM5.10344 15.31H12.9434C13.3424 15.27 13.6434 14.929 13.6434 14.53C13.6434 14.12 13.3424 13.78 12.9434 13.74H5.10344C4.80344 13.71 4.51344 13.85 4.35344 14.11C4.19344 14.36 4.19344 14.69 4.35344 14.95C4.51344 15.2 4.80344 15.35 5.10344 15.31Z" fill="#5B2E4F"/>
</svg>
