<svg width="152" height="150" viewBox="0 0 152 150" fill="none" xmlns="http://www.w3.org/2000/svg">
<path fill-rule="evenodd" clip-rule="evenodd" d="M78.8524 51.846C60.9279 51.846 43.0022 51.846 25.0777 51.8471C22.8377 51.8471 22.8311 51.8517 22.8311 54.0469V128.169C22.8311 130.379 22.8366 130.383 25.0645 130.383C60.8192 130.384 96.5762 130.384 132.331 130.383C134.571 130.383 134.575 130.379 134.575 128.182C134.576 103.473 134.576 78.7653 134.575 54.0594C134.575 51.8517 134.571 51.8471 132.342 51.8471C114.512 51.846 96.6826 51.846 78.8524 51.846ZM115.911 1.00005H111.296C107.424 2.34725 105.724 4.72885 105.714 8.83145C105.71 10.7794 105.658 12.7308 105.732 14.6754C105.779 15.9221 105.301 16.3388 104.054 16.3275C98.8656 16.28 93.6743 16.3083 88.4864 16.3094C76.9066 16.3094 65.3256 16.3094 53.7458 16.3083C51.6331 16.3071 51.5968 16.2631 51.587 14.1265C51.5804 12.4168 51.5738 10.7071 51.576 8.99632C51.5815 5.10941 49.8946 2.35516 46.1115 1.00005H41.2089C37.3413 2.36306 35.7038 5.20088 35.7093 9.12506C35.7104 10.9793 35.6599 12.8335 35.7192 14.6855C35.7609 15.9356 35.2297 16.3399 34.0026 16.3252C29.6784 16.2778 25.351 16.2913 21.0268 16.3128C13.5505 16.35 7.53396 21.2476 6.08744 28.4771C5.94037 29.2157 5.91952 29.9881 5.91952 30.7424C5.91074 64.767 5.90525 98.7904 5.91842 132.813C5.92062 140.554 12.5342 147.105 20.3441 147.106C59.2267 147.117 98.1105 147.116 136.993 147.106C144.9 147.106 151.492 140.574 151.493 132.745C151.504 98.7701 151.503 64.7952 151.495 30.8181C151.492 23.0353 144.97 16.4765 137.039 16.3297C132.474 16.245 127.907 16.3139 123.34 16.3049C121.538 16.3004 121.494 16.2518 121.486 14.4382C121.479 12.584 121.491 10.7309 121.482 8.87775C121.461 4.78645 119.799 2.43872 115.911 0.997787V1.00005Z" fill="#5B2E4F"/>
<path fill-rule="evenodd" clip-rule="evenodd" d="M83.057 59.7655C100.125 59.7655 113.963 74.0032 113.963 91.5654C113.963 109.128 100.125 123.365 83.057 123.365C65.9885 123.365 52.1511 109.128 52.1511 91.5654C52.1511 74.0032 65.9885 59.7655 83.057 59.7655Z" fill="#FBE0CB"/>
<path fill-rule="evenodd" clip-rule="evenodd" d="M83.057 65.2334C97.1908 65.2334 108.649 77.0228 108.649 91.5654C108.649 106.108 97.1908 117.897 83.057 117.897C68.9233 117.897 57.4652 106.108 57.4652 91.5654C57.4652 77.0228 68.9233 65.2334 83.057 65.2334Z" fill="#FBE0CB"/>
<path fill-rule="evenodd" clip-rule="evenodd" d="M76.8045 105.236V96.8672H83.9076L89.3095 105.236H93.8895V96.8672H97.61V92.4033H93.8895V90.7286H97.61V86.2646H93.8895V77.8957H89.3095V86.2646H82.2273L76.8418 77.8957H72.2257V86.2646H68.5051V90.7286H72.2257V92.4033H68.5051V96.8672H72.2257V105.236H76.8056H76.8045ZM89.3095 90.7286V92.4033H86.1772L85.0995 90.7286H89.3084H89.3095ZM76.8045 86.2646H77.0646L76.8045 85.8626V86.2646ZM79.9456 90.7286H76.8045V92.4033H81.0266L79.9467 90.7286H79.9456ZM89.3095 96.8672V97.2692L89.0505 96.8672H89.3095Z" fill="#5B2E4F"/>
</svg>
