<svg width="63" height="63" viewBox="0 0 63 63" fill="none" xmlns="http://www.w3.org/2000/svg">
<rect width="63" height="63" rx="6" fill="white"/>
<path fill-rule="evenodd" clip-rule="evenodd" d="M37.738 25.8493C37.738 29.3739 34.9282 32.2 31.424 32.2C27.9199 32.2 25.1101 29.3739 25.1101 25.8493C25.1101 22.3235 27.9199 19.5001 31.424 19.5001C34.9282 19.5001 37.738 22.3235 37.738 25.8493ZM31.424 43.5001C26.2773 43.5001 21.8826 42.6841 21.8826 39.4203C21.8826 36.1552 26.2491 35.3095 31.424 35.3095C36.5708 35.3095 40.9654 36.1254 40.9654 39.3906C40.9654 42.6544 36.599 43.5001 31.424 43.5001ZM40.4361 25.9639C40.4361 27.7606 39.9002 29.4344 38.9601 30.8258C38.8633 30.969 38.9493 31.1622 39.1199 31.1919C39.3549 31.2324 39.598 31.2554 39.8452 31.2622C42.3098 31.327 44.5218 29.7316 45.133 27.3297C46.0382 23.7619 43.3802 20.5589 39.9956 20.5589C39.6276 20.5589 39.2757 20.5981 38.9332 20.6683C38.8862 20.6791 38.8365 20.7007 38.8096 20.7426C38.7774 20.794 38.8016 20.8629 38.8338 20.9074C39.8505 22.3408 40.4361 24.0888 40.4361 25.9639ZM44.5178 33.7689C46.1739 34.0945 47.2631 34.7591 47.7144 35.725C48.0958 36.518 48.0958 37.438 47.7144 38.2296C47.024 39.7278 44.7985 40.2087 43.9336 40.333C43.7549 40.36 43.6112 40.2046 43.63 40.025C44.0719 35.8736 40.557 33.9054 39.6477 33.4528C39.6088 33.4325 39.6007 33.4015 39.6047 33.3826C39.6074 33.369 39.6235 33.3474 39.6531 33.3434C41.6207 33.3069 43.7361 33.5771 44.5178 33.7689ZM23.1562 31.262C23.4033 31.2553 23.645 31.2337 23.8814 31.1918C24.052 31.1621 24.138 30.9689 24.0413 30.8257C23.1011 29.4342 22.5652 27.7605 22.5652 25.9638C22.5652 24.0887 23.1508 22.3406 24.1675 20.9073C24.1997 20.8627 24.2226 20.7938 24.1917 20.7425C24.1648 20.702 24.1138 20.679 24.0681 20.6682C23.7243 20.5979 23.3724 20.5588 23.0044 20.5588C19.6198 20.5588 16.9618 23.7618 17.8684 27.3295C18.4795 29.7314 20.6916 31.3269 23.1562 31.262ZM23.3959 33.3817C23.3999 33.402 23.3919 33.4317 23.3543 33.4533C22.4436 33.9059 18.9287 35.8742 19.3706 40.0242C19.3894 40.2052 19.247 40.3592 19.0684 40.3335C18.2035 40.2092 15.9779 39.7283 15.2876 38.2302C14.9048 37.4372 14.9048 36.5186 15.2876 35.7256C15.7389 34.7597 16.8268 34.095 18.4828 33.7681C19.2659 33.5776 21.3799 33.3074 23.3489 33.3439C23.3784 33.348 23.3932 33.3696 23.3959 33.3817Z" fill="#D43E8A"/>
</svg>
