<svg width="64" height="64" viewBox="0 0 64 64" fill="none" xmlns="http://www.w3.org/2000/svg">
<path d="M0 6.98182C0 3.12587 2.91394 0 6.50847 0H57.4915C61.0861 0 64 3.12587 64 6.98182V57.0182C64 60.8741 61.0861 64 57.4915 64H6.50848C2.91394 64 0 60.8741 0 57.0182V6.98182Z" fill="white"/>
<path d="M40.9415 38.7195C39.8542 38.7195 38.9728 37.838 38.9728 36.7507V25.2866C38.9728 21.4228 35.8293 18.2792 31.9654 18.2792C28.1016 18.2792 24.958 21.4227 24.958 25.2866V31.9544C24.958 33.0417 24.0766 33.9231 22.9893 33.9231C21.9019 33.9231 21.0205 33.0417 21.0205 31.9544V25.2866C21.0205 19.2515 25.9303 14.3417 31.9654 14.3417C38.0005 14.3417 42.9103 19.2515 42.9103 25.2866V36.7507C42.9103 37.838 42.0288 38.7195 40.9415 38.7195Z" fill="#B1B4B5"/>
<path d="M43.9432 50.6409H19.9857C17.7489 50.6409 15.9357 48.8276 15.9357 46.5909V32.7399C15.9357 30.5032 17.7489 28.6899 19.9857 28.6899H43.9432C46.1799 28.6899 47.9932 30.5032 47.9932 32.7399V46.5908C47.9932 48.8276 46.1799 50.6409 43.9432 50.6409Z" fill="#540A45"/>
<path d="M20.9727 47.3771H20.7698C20.1307 47.3771 19.6127 46.8591 19.6127 46.22V33.1112C19.6127 32.4721 20.1307 31.954 20.7698 31.954H20.9727C21.6118 31.954 22.1299 32.4721 22.1299 33.1112V46.22C22.1299 46.8591 21.6118 47.3771 20.9727 47.3771Z" fill="#F2C9E3"/>
</svg>
