<svg width="63" height="63" viewBox="0 0 63 63" fill="none" xmlns="http://www.w3.org/2000/svg">
<rect width="63" height="63" rx="5.8125" fill="white"/>
<path d="M40.9585 22.6642C39.5241 22.9879 38.1848 23.7043 37.5508 24.4895C37.3368 24.7581 37.1387 25.1232 36.9802 25.5709C36.1243 27.9748 35.3555 29.1457 33.6596 30.6267C31.8685 32.1902 29.8952 33.127 27.3989 33.5954C26.6935 33.7262 26.329 33.7469 24.9817 33.7469C23.6503 33.7469 23.2699 33.7262 22.5963 33.5954C20.9796 33.2923 19.4184 32.7275 18.1504 31.9836L17.5005 31.5979L17.2628 32.1282C16.6446 33.5334 16.4386 34.5046 16.4386 35.9924C16.4386 37.7763 16.8031 39.0575 17.8413 40.9172C18.5308 42.1433 19.2916 43.1489 20.203 44.0582C20.5754 44.4232 20.9875 44.864 21.1302 45.0431C21.7959 45.8766 22.2635 47.144 22.3665 48.3493C22.422 48.9555 22.4457 49.0519 22.6439 49.2448L22.8658 49.4583H25.9327H28.9997L29.2295 49.231C29.4514 49.0175 29.4593 48.9899 29.4593 48.2874V47.571L29.7209 47.6192C29.8556 47.6468 30.8224 47.6674 31.8527 47.6674H33.7388V48.3356C33.7388 48.983 33.7468 49.0175 33.9687 49.231L34.1985 49.4583L37.2179 49.479L40.2373 49.4996L40.5226 49.2654L40.8159 49.0313L40.8713 47.9016C40.9189 46.8822 40.9506 46.7238 41.1487 46.2898C41.5133 45.4977 41.9174 45.0294 43.0665 44.0444C44.8734 42.5084 46.0622 40.9586 46.6169 39.4226L46.7596 39.0368L47.56 39.0093C48.511 38.9817 48.8676 38.8578 49.2322 38.41L49.4699 38.1139L49.4937 36.0406C49.5175 33.8158 49.4937 33.6022 49.145 33.2372C48.7884 32.8721 48.5269 32.7895 47.5759 32.755L46.7041 32.7206L46.4584 32.1696C45.7927 30.6818 44.8338 29.4419 43.3518 28.1677C42.3216 27.2722 42.3057 27.2584 42.2106 26.8383C42.0125 25.9635 42.2106 25.0956 42.8526 24.0004C43.2092 23.3943 43.225 23.2703 43.0428 22.9328C42.7812 22.4575 42.2106 22.3818 40.9585 22.6642ZM41.9729 30.8953C42.2661 31.0744 42.5356 31.5152 42.5356 31.8252C42.5356 32.1351 42.2661 32.5759 41.9729 32.755C41.7986 32.8652 41.5687 32.9272 41.2755 32.9479C40.7604 32.9754 40.4117 32.817 40.0947 32.4106C39.9362 32.204 39.9124 32.1076 39.9362 31.7425C39.9679 31.281 40.1105 31.0813 40.594 30.8126C40.9268 30.6267 41.6163 30.668 41.9729 30.8953Z" fill="#ED9B9B"/>
<ellipse cx="25.063" cy="22.5" rx="10.0623" ry="9" fill="#ED9B9B"/>
</svg>
