<svg width="25" height="24" viewBox="0 0 25 24" fill="none" xmlns="http://www.w3.org/2000/svg">
<path fill-rule="evenodd" clip-rule="evenodd" d="M22.0234 7.92V16.09C22.0234 19.62 19.7524 22 16.3634 22H7.69344C4.30344 22 2.02344 19.62 2.02344 16.09V7.92C2.02344 4.38 4.30344 2 7.69344 2H16.3634C19.7524 2 22.0234 4.38 22.0234 7.92ZM11.2734 9.73V16.08C11.2734 16.5 11.6134 16.83 12.0234 16.83C12.4434 16.83 12.7734 16.5 12.7734 16.08V9.73L15.2434 12.21C15.3834 12.35 15.5834 12.43 15.7734 12.43C15.9624 12.43 16.1534 12.35 16.3034 12.21C16.5934 11.92 16.5934 11.44 16.3034 11.15L12.5534 7.38C12.2734 7.1 11.7734 7.1 11.4934 7.38L7.74344 11.15C7.45344 11.44 7.45344 11.92 7.74344 12.21C8.04344 12.5 8.51344 12.5 8.81344 12.21L11.2734 9.73Z" fill="#666666" fill-opacity="0.85"/>
</svg>
