<svg width="25" height="24" viewBox="0 0 25 24" fill="none" xmlns="http://www.w3.org/2000/svg">
<path fill-rule="evenodd" clip-rule="evenodd" d="M9.91879 11.23C9.48129 11.23 9.13536 11.57 9.13536 12C9.13536 12.42 9.48129 12.77 9.91879 12.77H16.0234V17.55C16.0234 20 13.9987 22 11.4958 22H6.54088C4.04815 22 2.02344 20.01 2.02344 17.56V6.45C2.02344 3.99 4.05832 2 6.55105 2H11.5162C13.9987 2 16.0234 3.99 16.0234 6.44V11.23H9.91879ZM19.6536 8.5402L22.5736 11.4502C22.7236 11.6002 22.8036 11.7902 22.8036 12.0002C22.8036 12.2002 22.7236 12.4002 22.5736 12.5402L19.6536 15.4502C19.5036 15.6002 19.3036 15.6802 19.1136 15.6802C18.9136 15.6802 18.7136 15.6002 18.5636 15.4502C18.2636 15.1502 18.2636 14.6602 18.5636 14.3602L20.1636 12.7702H16.0236V11.2302H20.1636L18.5636 9.6402C18.2636 9.3402 18.2636 8.8502 18.5636 8.5502C18.8636 8.2402 19.3536 8.2402 19.6536 8.5402Z" fill="#666666" fill-opacity="0.85"/>
</svg>
