<svg width="25" height="24" viewBox="0 0 25 24" fill="none" xmlns="http://www.w3.org/2000/svg">
<path fill-rule="evenodd" clip-rule="evenodd" d="M7.69344 1.9992H16.3634C19.7534 1.9992 22.0234 4.3792 22.0234 7.9192V16.0902C22.0234 19.6202 19.7534 21.9992 16.3634 21.9992H7.69344C4.30344 21.9992 2.02344 19.6202 2.02344 16.0902V7.9192C2.02344 4.3792 4.30344 1.9992 7.69344 1.9992ZM12.0134 9.0602C11.5434 9.0602 11.1534 8.6692 11.1534 8.1902C11.1534 7.7002 11.5434 7.3102 12.0334 7.3102C12.5134 7.3102 12.9034 7.7002 12.9034 8.1902C12.9034 8.6692 12.5134 9.0602 12.0134 9.0602ZM12.8934 15.7802C12.8934 16.2602 12.5034 16.6502 12.0134 16.6502C11.5334 16.6502 11.1434 16.2602 11.1434 15.7802V11.3602C11.1434 10.8792 11.5334 10.4802 12.0134 10.4802C12.5034 10.4802 12.8934 10.8792 12.8934 11.3602V15.7802Z" fill="#666666" fill-opacity="0.85"/>
</svg>
