<svg width="25" height="24" viewBox="0 0 25 24" fill="none" xmlns="http://www.w3.org/2000/svg">
<path fill-rule="evenodd" clip-rule="evenodd" d="M14.2358 7.76241C14.2358 10.4062 12.0724 12.5248 9.37278 12.5248C6.67414 12.5248 4.50975 10.4062 4.50975 7.76241C4.50975 5.11865 6.67414 3 9.37278 3C12.0724 3 14.2358 5.11865 14.2358 7.76241ZM2.02344 17.9174C2.02344 15.47 5.40896 14.8577 9.37277 14.8577C13.3581 14.8577 16.7221 15.4911 16.7221 17.9404C16.7221 20.3877 13.3366 21 9.37277 21C5.38744 21 2.02344 20.3666 2.02344 17.9174ZM16.1969 7.84875C16.1969 9.19506 15.784 10.4513 15.0599 11.4948C14.9845 11.6021 15.0511 11.7468 15.1822 11.7698C15.3642 11.7995 15.5511 11.8177 15.7419 11.8216C17.6401 11.8704 19.3437 10.6736 19.8143 8.87118C20.512 6.19676 18.465 3.79543 15.8573 3.79543C15.5746 3.79543 15.3035 3.82418 15.0393 3.87688C15.0031 3.88454 14.964 3.90179 14.9444 3.93246C14.919 3.97174 14.9376 4.02253 14.963 4.05607C15.7468 5.13216 16.1969 6.44206 16.1969 7.84875ZM19.3407 13.7023C20.6166 13.9466 21.4552 14.444 21.8026 15.1694C22.0971 15.7635 22.0971 16.4534 21.8026 17.0475C21.2712 18.1705 19.5569 18.5318 18.8906 18.6247C18.7526 18.6439 18.6421 18.5289 18.6568 18.3928C18.9973 15.2805 16.2898 13.8048 15.5892 13.4656C15.5599 13.4493 15.553 13.4263 15.556 13.411C15.5579 13.4014 15.5706 13.3861 15.5931 13.3832C17.1088 13.3545 18.7389 13.5586 19.3407 13.7023Z" fill="#666666" fill-opacity="0.85"/>
</svg>
