<svg width="25" height="24" viewBox="0 0 25 24" fill="none" xmlns="http://www.w3.org/2000/svg">
<path fill-rule="evenodd" clip-rule="evenodd" d="M2.02344 12.015C2.02344 6.74712 6.23344 2 12.0434 2C17.7234 2 22.0234 6.65699 22.0234 11.985C22.0234 18.1642 16.9834 22 12.0234 22C10.3834 22 8.56344 21.5593 7.10344 20.698C6.59344 20.3876 6.16344 20.1572 5.61344 20.3375L3.59344 20.9384C3.08344 21.0986 2.62344 20.698 2.77344 20.1572L3.44344 17.9139C3.55344 17.6034 3.53344 17.2729 3.37344 17.0125C2.51344 15.4301 2.02344 13.6975 2.02344 12.015ZM10.7234 12.015C10.7234 12.7261 11.2934 13.2969 12.0034 13.307C12.7134 13.307 13.2834 12.7261 13.2834 12.025C13.2834 11.314 12.7134 10.7431 12.0034 10.7431C11.3034 10.7331 10.7234 11.314 10.7234 12.015ZM15.3334 12.025C15.3334 12.7261 15.9034 13.307 16.6134 13.307C17.3234 13.307 17.8934 12.7261 17.8934 12.025C17.8934 11.314 17.3234 10.7431 16.6134 10.7431C15.9034 10.7431 15.3334 11.314 15.3334 12.025ZM7.39344 13.307C6.69344 13.307 6.11344 12.7261 6.11344 12.025C6.11344 11.314 6.68344 10.7431 7.39344 10.7431C8.10344 10.7431 8.67344 11.314 8.67344 12.025C8.67344 12.7261 8.10344 13.2969 7.39344 13.307Z" fill="#666666" fill-opacity="0.85"/>
</svg>
