<svg width="25" height="24" viewBox="0 0 25 24" fill="none" xmlns="http://www.w3.org/2000/svg">
<path fill-rule="evenodd" clip-rule="evenodd" d="M4.56344 2H7.94344C9.35344 2 10.4834 3.15 10.4834 4.561V7.97C10.4834 9.39 9.35344 10.53 7.94344 10.53H4.56344C3.16344 10.53 2.02344 9.39 2.02344 7.97V4.561C2.02344 3.15 3.16344 2 4.56344 2ZM4.56344 13.4697H7.94344C9.35344 13.4697 10.4834 14.6107 10.4834 16.0307V19.4397C10.4834 20.8497 9.35344 21.9997 7.94344 21.9997H4.56344C3.16344 21.9997 2.02344 20.8497 2.02344 19.4397V16.0307C2.02344 14.6107 3.16344 13.4697 4.56344 13.4697ZM19.4835 2H16.1035C14.6935 2 13.5635 3.15 13.5635 4.561V7.97C13.5635 9.39 14.6935 10.53 16.1035 10.53H19.4835C20.8835 10.53 22.0235 9.39 22.0235 7.97V4.561C22.0235 3.15 20.8835 2 19.4835 2ZM16.1035 13.4697H19.4835C20.8835 13.4697 22.0235 14.6107 22.0235 16.0307V19.4397C22.0235 20.8497 20.8835 21.9997 19.4835 21.9997H16.1035C14.6935 21.9997 13.5635 20.8497 13.5635 19.4397V16.0307C13.5635 14.6107 14.6935 13.4697 16.1035 13.4697Z" fill="#666666" fill-opacity="0.85"/>
</svg>
