<svg width="25" height="24" viewBox="0 0 25 24" fill="none" xmlns="http://www.w3.org/2000/svg">
<path fill-rule="evenodd" clip-rule="evenodd" d="M7.83344 2H16.2144C19.3034 2 21.0234 3.78 21.0234 6.83V17.16C21.0234 20.26 19.3034 22 16.2144 22H7.83344C4.79344 22 3.02344 20.26 3.02344 17.16V6.83C3.02344 3.78 4.79344 2 7.83344 2ZM8.10344 6.66V6.65H11.0924C11.5234 6.65 11.8734 7 11.8734 7.429C11.8734 7.87 11.5234 8.22 11.0924 8.22H8.10344C7.67244 8.22 7.32344 7.87 7.32344 7.44C7.32344 7.01 7.67244 6.66 8.10344 6.66ZM8.10344 12.74H15.9434C16.3734 12.74 16.7234 12.39 16.7234 11.96C16.7234 11.53 16.3734 11.179 15.9434 11.179H8.10344C7.67244 11.179 7.32344 11.53 7.32344 11.96C7.32344 12.39 7.67244 12.74 8.10344 12.74ZM8.10344 17.31H15.9434C16.3424 17.27 16.6434 16.929 16.6434 16.53C16.6434 16.12 16.3424 15.78 15.9434 15.74H8.10344C7.80344 15.71 7.51344 15.85 7.35344 16.11C7.19344 16.36 7.19344 16.69 7.35344 16.95C7.51344 17.2 7.80344 17.35 8.10344 17.31Z" fill="#5B2E4F"/>
</svg>
