<svg width="25" height="24" viewBox="0 0 25 24" fill="none" xmlns="http://www.w3.org/2000/svg">
<path fill-rule="evenodd" clip-rule="evenodd" d="M16.9538 7C16.9855 6.92913 17.0004 6.85189 16.9973 6.77432H17.0234C16.9116 4.10591 14.7083 2 12.0284 2C9.34843 2 7.14516 4.10591 7.03333 6.77432C7.02014 6.84898 7.02014 6.92535 7.03333 7H6.95515C5.67366 7 4.30378 7.84597 3.90608 10.1201L3.12834 16.3147C2.49201 20.8629 4.83406 22 7.89197 22H16.1819C19.231 22 21.5023 20.3535 20.9367 16.3147L20.1678 10.1201C19.6994 7.90964 18.3737 7 17.1099 7H16.9538ZM15.5166 7C15.4888 6.92794 15.4741 6.85153 15.4731 6.77432C15.4731 4.85682 13.9133 3.30238 11.9892 3.30238C10.0651 3.30238 8.50528 4.85682 8.50528 6.77432C8.51846 6.84898 8.51846 6.92535 8.50528 7H15.5166ZM9.12043 12.1486C8.63233 12.1486 8.23664 11.7413 8.23664 11.2389C8.23664 10.7366 8.63233 10.3293 9.12043 10.3293C9.60854 10.3293 10.0042 10.7366 10.0042 11.2389C10.0042 11.7413 9.60854 12.1486 9.12043 12.1486ZM14.0255 11.2389C14.0255 11.7413 14.4212 12.1486 14.9093 12.1486C15.3974 12.1486 15.793 11.7413 15.793 11.2389C15.793 10.7366 15.3974 10.3293 14.9093 10.3293C14.4212 10.3293 14.0255 10.7366 14.0255 11.2389Z" fill="#666666" fill-opacity="0.85"/>
</svg>
