<svg width="25" height="24" viewBox="0 0 25 24" fill="none" xmlns="http://www.w3.org/2000/svg">
<path fill-rule="evenodd" clip-rule="evenodd" d="M12.3498 2.20966C12.5095 2.06632 12.7208 1.99119 12.937 2.00082C17.5078 2.13765 21.3278 5.4558 22.0201 9.89063C22.0245 9.91711 22.0245 9.94411 22.0201 9.97059C22.035 10.1804 21.9641 10.3874 21.8231 10.5458C21.682 10.7043 21.4824 10.801 21.2685 10.8147L13.589 11.3211C13.335 11.3436 13.0832 11.26 12.8953 11.0909C12.7074 10.9218 12.6009 10.6828 12.6019 10.4326L12.0857 2.88932V2.76493C12.0951 2.55278 12.1901 2.353 12.3498 2.20966ZM11.8231 13.2936L18.4792 12.8671L18.5245 12.8848C18.8104 12.8895 19.0826 13.0054 19.2813 13.207C19.48 13.4087 19.5889 13.6795 19.5841 13.9599C19.3218 17.782 16.5196 20.9755 12.7062 21.7982C8.89281 22.621 4.98361 20.8754 3.11122 17.5139C2.56065 16.5457 2.21274 15.4794 2.08789 14.3775C2.03947 14.051 2.01827 13.7212 2.0245 13.3913C2.03712 9.32706 4.93071 5.81907 8.97951 4.9595C9.46964 4.86776 9.96105 5.11248 10.1749 5.55479C10.2281 5.63505 10.2707 5.72164 10.3017 5.81245C10.3776 6.98405 10.4563 8.14455 10.5347 9.30015C10.5966 10.2128 10.6583 11.1223 10.7183 12.0319C10.7152 12.2462 10.7488 12.4594 10.8179 12.6627C10.9804 13.0627 11.3848 13.3165 11.8231 13.2936Z" fill="#666666" fill-opacity="0.85"/>
</svg>
