<svg width="19" height="22" viewBox="0 0 19 22" fill="none" xmlns="http://www.w3.org/2000/svg">
<mask id="mask0_122_454" style="mask-type:luminance" maskUnits="userSpaceOnUse" x="0" y="0" width="19" height="18">
<path fill-rule="evenodd" clip-rule="evenodd" d="M0.0237427 0H18.6664V17.348H0.0237427V0Z" fill="white"/>
</mask>
<g mask="url(#mask0_122_454)">
<path fill-rule="evenodd" clip-rule="evenodd" d="M9.34363 1.5C5.82109 1.5 3.36589 4.238 3.36589 6.695C3.36589 8.774 2.78434 9.735 2.27032 10.583C1.8581 11.264 1.53255 11.802 1.53255 12.971C1.70087 14.857 2.95568 15.848 9.34363 15.848C15.6963 15.848 16.9904 14.813 17.1577 12.906C17.1547 11.802 16.8292 11.264 16.4169 10.583C15.9029 9.735 15.3214 8.774 15.3214 6.695C15.3214 4.238 12.8662 1.5 9.34363 1.5ZM9.34363 17.348C4.63078 17.348 0.371475 17.018 0.0237561 13.035C0.0207325 11.387 0.527697 10.549 0.975196 9.811C1.42773 9.063 1.85407 8.358 1.85407 6.695C1.85407 3.462 4.8636 0 9.34363 0C13.8237 0 16.8332 3.462 16.8332 6.695C16.8332 8.358 17.2595 9.063 17.7121 9.811C18.1596 10.549 18.6665 11.387 18.6665 12.971C18.3148 17.018 14.0565 17.348 9.34363 17.348Z" fill="black"/>
</g>
<path fill-rule="evenodd" clip-rule="evenodd" d="M9.29445 21.5H9.29243C8.1626 21.499 7.09324 21.005 6.28189 20.108C6.00271 19.801 6.02791 19.326 6.33834 19.05C6.64876 18.772 7.1265 18.797 7.40568 19.106C7.92776 19.683 8.598 20 9.29344 20H9.29445C9.99291 20 10.6662 19.683 11.1893 19.105C11.4695 18.798 11.9472 18.773 12.2566 19.05C12.567 19.327 12.5922 19.802 12.3131 20.109C11.4987 21.006 10.4273 21.5 9.29445 21.5Z" fill="black"/>
</svg>
